<?xml version="1.0" encoding="iso-8859-1"?>
<!-- Generator: Adobe Illustrator 19.0.0, SVG Export Plug-In . SVG Version: 6.00 Build 0)  -->
<svg version="1.1" id="Layer_1" xmlns="http://www.w3.org/2000/svg" xmlns:xlink="http://www.w3.org/1999/xlink" x="0px" y="0px"
	 viewBox="0 0 512.002 512.002" style="enable-background:new 0 0 512.002 512.002;" xml:space="preserve">
<rect x="-49.774" y="199.62" transform="matrix(0.7071 0.7071 -0.7071 0.7071 255.7966 -105.9511)" style="fill:#E0E0E0;" width="611.134" height="112.357"/>
<rect x="-69.53" y="247.333" transform="matrix(0.7071 0.7071 -0.7071 0.7071 263.9878 -86.1921)" style="fill:#F1F1F1;" width="611.134" height="56.466"/>
<path style="fill:#F28E00;" d="M495.547,16.456c-21.94-21.94-57.511-21.94-79.452,0l0,0L45.062,387.491L0.002,512.001l124.51-45.059
	L495.547,95.908l0,0C517.487,73.967,517.487,38.396,495.547,16.456z"/>
<path style="fill:#FBBA00;" d="M495.547,16.456c-21.94-21.94-57.511-21.94-79.452,0l0,0L45.062,387.491L0.002,512.001
	L495.547,16.456L495.547,16.456z"/>
<path style="fill:#FF405F;" d="M495.547,16.456c-21.94-21.94-57.511-21.94-79.452,0l0,0L372.33,60.222l79.452,79.452l43.766-43.766
	l0,0C517.487,73.967,517.487,38.396,495.547,16.456z"/>
<polygon style="fill:#FBBA00;" points="45.062,387.491 0.002,512.001 124.512,466.942 "/>
<g>
	
		<rect x="310.144" y="316.737" transform="matrix(-0.7071 -0.7071 0.7071 -0.7071 306.3125 833.6834)" style="fill:#666666;" width="31.347" height="73.33"/>
	
		<rect x="354.229" y="360.827" transform="matrix(-0.7071 -0.7071 0.7071 -0.7071 350.3929 940.1213)" style="fill:#666666;" width="31.347" height="73.33"/>
	
		<rect x="398.306" y="404.913" transform="matrix(-0.7071 -0.7071 0.7071 -0.7071 394.463 1046.5487)" style="fill:#666666;" width="31.347" height="73.33"/>
	
		<rect x="54.336" y="60.943" transform="matrix(-0.7071 -0.7071 0.7071 -0.7071 50.4934 216.131)" style="fill:#666666;" width="31.347" height="73.33"/>
	
		<rect x="98.42" y="105.029" transform="matrix(-0.7071 -0.7071 0.7071 -0.7071 94.5761 322.5635)" style="fill:#666666;" width="31.347" height="73.33"/>
	
		<rect x="142.511" y="149.12" transform="matrix(-0.7071 -0.7071 0.7071 -0.7071 138.6684 429.0085)" style="fill:#666666;" width="31.347" height="73.33"/>
</g>
<polygon style="fill:#FBDB80;" points="45.062,387.491 0.002,512.001 84.787,427.216 "/>
<path style="fill:#FB788A;" d="M495.547,16.456c-21.94-21.94-57.511-21.94-79.452,0l0,0L372.33,60.222l39.726,39.726L495.547,16.456
	L495.547,16.456z"/>
<polygon style="fill:#666666;" points="0.002,512.001 68.958,487.047 24.957,443.045 "/>
<g>
</g>
<g>
</g>
<g>
</g>
<g>
</g>
<g>
</g>
<g>
</g>
<g>
</g>
<g>
</g>
<g>
</g>
<g>
</g>
<g>
</g>
<g>
</g>
<g>
</g>
<g>
</g>
<g>
</g>
</svg>
